<svg width="526" height="571" viewBox="0 0 526 571" fill="none" xmlns="http://www.w3.org/2000/svg">
<path d="M504.69 318.912C470.681 286.35 412.125 238.755 356.708 319.199C286.185 421.57 366.513 504.993 269.626 508.336" stroke="#313131" stroke-width="0.571302"/>
<path d="M481.381 318.422C447.372 285.86 388.816 238.265 333.399 318.709C262.876 421.079 343.204 504.502 246.317 507.846" stroke="#313131" stroke-width="0.571302"/>
<path d="M459.094 316.515C425.085 283.953 366.528 236.358 311.111 316.802C240.589 419.172 320.916 502.595 224.03 505.939" stroke="#313131" stroke-width="0.571302"/>
<path d="M438.172 312.888C404.164 280.327 345.607 232.732 290.19 313.176C219.668 415.546 299.995 498.969 203.108 502.312" stroke="#313131" stroke-width="0.571302"/>
<path d="M419.048 307.226C385.04 274.664 326.483 227.069 271.066 307.513C200.544 409.883 280.871 493.306 183.984 496.65" stroke="#313131" stroke-width="0.571302"/>
<path d="M402.194 299.266C368.186 266.704 309.629 219.11 254.212 299.553C183.69 401.924 264.017 485.347 167.13 488.69" stroke="#313131" stroke-width="0.571302"/>
<path d="M387.999 288.932C353.99 256.37 295.433 208.775 240.016 289.219C169.494 391.589 249.821 475.012 152.934 478.356" stroke="#313131" stroke-width="0.571302"/>
<path d="M376.595 276.384C342.587 243.823 284.03 196.228 228.613 276.672C158.091 379.042 238.418 462.465 141.531 465.808" stroke="#313131" stroke-width="0.571302"/>
<path d="M367.776 262.015C333.768 229.453 275.211 181.858 219.794 262.302C149.272 364.672 229.599 448.095 132.712 451.439" stroke="#313131" stroke-width="0.571302"/>
<path d="M361.062 246.304C327.053 213.742 268.496 166.147 213.079 246.591C142.557 348.961 222.884 432.384 125.998 435.728" stroke="#313131" stroke-width="0.571302"/>
<path d="M355.861 229.697C321.852 197.135 263.296 149.54 207.879 229.984C137.356 332.354 217.684 415.777 120.797 419.121" stroke="#313131" stroke-width="0.571302"/>
<path d="M351.603 212.564C317.594 180.002 259.037 132.407 203.62 212.851C133.098 315.221 213.425 398.644 116.538 401.988" stroke="#313131" stroke-width="0.571302"/>
<path d="M347.805 195.181C313.796 162.619 255.239 115.024 199.822 195.468C129.3 297.838 209.627 381.261 112.741 384.605" stroke="#313131" stroke-width="0.571302"/>
<path d="M344.084 177.758C310.076 145.197 251.519 97.6019 196.102 178.046C125.58 280.416 205.907 363.839 109.02 367.182" stroke="#313131" stroke-width="0.571302"/>
<path d="M340.154 160.446C306.145 127.884 247.588 80.2894 192.171 160.733C121.649 263.104 201.976 346.526 105.09 349.87" stroke="#313131" stroke-width="0.571302"/>
<path d="M335.802 143.364C301.793 110.802 243.236 63.2076 187.819 143.651C117.297 246.022 197.624 329.445 100.737 332.788" stroke="#313131" stroke-width="0.571302"/>
<path d="M330.882 126.6C296.873 94.0377 238.317 46.4429 182.9 126.887C112.377 229.257 192.705 312.68 95.818 316.024" stroke="#313131" stroke-width="0.571302"/>
<path d="M325.298 110.213C291.289 77.6515 232.733 30.0567 177.315 110.5C106.793 212.871 187.12 296.294 90.2338 299.637" stroke="#313131" stroke-width="0.571302"/>
</svg>
