<svg width="450" height="417" viewBox="0 0 450 417" fill="none" xmlns="http://www.w3.org/2000/svg">
<path d="M217.993 20.2579C197.852 50.4321 169.601 101.249 238.074 132.498C325.212 172.265 377.726 100.12 393.267 173.182" stroke="#313131" stroke-width="0.571302"/>
<path d="M220.749 38.009C200.609 68.1832 172.357 119.001 240.831 150.249C327.969 190.016 380.482 117.871 396.024 190.933" stroke="#313131" stroke-width="0.571302"/>
<path d="M222.294 55.1751C202.153 85.3494 173.902 136.167 242.375 167.416C329.513 207.182 382.027 135.038 397.568 208.1" stroke="#313131" stroke-width="0.571302"/>
<path d="M222.351 71.5356C202.211 101.71 173.959 152.527 242.433 183.776C329.57 223.542 382.084 151.398 397.625 224.46" stroke="#313131" stroke-width="0.571302"/>
<path d="M220.621 86.8058C200.481 116.98 172.229 167.797 240.703 199.046C327.84 238.813 380.354 166.668 395.895 239.73" stroke="#313131" stroke-width="0.571302"/>
<path d="M216.845 100.662C196.704 130.836 168.453 181.653 236.927 212.902C324.064 252.669 376.578 180.524 392.119 253.586" stroke="#313131" stroke-width="0.571302"/>
<path d="M210.909 112.82C190.768 142.994 162.516 193.811 230.99 225.06C318.128 264.827 370.641 192.682 386.183 265.744" stroke="#313131" stroke-width="0.571302"/>
<path d="M202.92 123.156C182.779 153.33 154.527 204.147 223.001 235.396C310.139 275.163 362.652 203.018 378.194 276.08" stroke="#313131" stroke-width="0.571302"/>
<path d="M193.201 131.776C173.06 161.95 144.808 212.768 213.282 244.016C300.42 283.783 352.933 211.638 368.475 284.7" stroke="#313131" stroke-width="0.571302"/>
<path d="M182.181 138.98C162.041 169.154 133.789 219.971 202.263 251.22C289.4 290.986 341.914 218.842 357.456 291.904" stroke="#313131" stroke-width="0.571302"/>
<path d="M170.279 145.155C150.139 175.329 121.887 226.146 190.361 257.395C277.499 297.161 330.012 225.017 345.554 298.079" stroke="#313131" stroke-width="0.571302"/>
<path d="M157.852 150.685C137.711 180.86 109.459 231.677 177.933 262.926C265.071 302.692 317.584 230.548 333.126 303.61" stroke="#313131" stroke-width="0.571302"/>
<path d="M145.173 155.9C125.032 186.074 96.7801 236.892 165.254 268.141C252.392 307.907 304.905 235.763 320.447 308.825" stroke="#313131" stroke-width="0.571302"/>
<path d="M132.453 161.061C112.312 191.236 84.0606 242.053 152.534 273.302C239.672 313.068 292.186 240.924 307.727 313.986" stroke="#313131" stroke-width="0.571302"/>
<path d="M119.845 166.368C99.7044 196.542 71.4527 247.359 139.927 278.608C227.064 318.374 279.578 246.23 295.119 319.292" stroke="#313131" stroke-width="0.571302"/>
<path d="M107.469 171.962C87.3282 202.137 59.0765 252.954 127.55 284.203C214.688 323.969 267.201 251.825 282.743 324.887" stroke="#313131" stroke-width="0.571302"/>
<path d="M95.4091 177.945C75.2684 208.12 47.0167 258.937 115.49 290.186C202.628 329.952 255.142 257.808 270.683 330.87" stroke="#313131" stroke-width="0.571302"/>
<path d="M83.7262 184.382C63.5855 214.556 35.3338 265.373 103.808 296.622C190.945 336.389 243.459 264.244 259 337.306" stroke="#313131" stroke-width="0.571302"/>
</svg>
