<svg width="334" height="118" viewBox="0 0 334 118" fill="none" xmlns="http://www.w3.org/2000/svg">
<g clip-path="url(#clip0_30_175)">
<rect width="334" height="118" rx="30" fill="#42C83C"/>
<path fill-rule="evenodd" clip-rule="evenodd" d="M334.516 -61.6635C327.755 -54.9191 319.36 -45.6737 316.702 -35.1802C315.871 -31.901 315.6 -28.4986 316.113 -25.0129C315.553 -22.5455 315.316 -20.0106 315.496 -17.4251C315.429 -17.1865 315.365 -16.9472 315.304 -16.7073C314.832 -14.8432 314.541 -12.9393 314.472 -11.0028C314.153 -10.0971 313.873 -9.18081 313.639 -8.25481C313.569 -7.97766 313.502 -7.69964 313.44 -7.42076C307.277 -0.994805 300.58 7.21779 298.258 16.3824C296.927 21.6383 297.033 27.211 299.503 32.9354C301.972 38.6571 306.794 44.5081 314.854 50.338C333.631 63.9195 351.102 64.6009 364.506 65.1236C365.751 65.1721 366.96 65.2193 368.133 65.2753C375.053 65.606 380.594 66.2445 384.45 69.1875C388.286 72.115 390.528 77.3906 390.641 87.1987L391.23 87.2126C391.117 77.3553 388.866 71.8574 384.812 68.763C380.778 65.684 375.033 65.052 368.142 64.7227C366.967 64.6666 365.757 64.6193 364.513 64.5706C351.115 64.0468 333.821 63.3705 315.202 49.904C307.206 44.1198 302.466 38.3467 300.048 32.7435C297.631 27.1429 297.524 21.69 298.831 16.5287C301.038 7.81849 307.27 -0.0502673 313.223 -6.34749L313.217 -6.31736C313.066 -5.98484 312.919 -5.65068 312.777 -5.31491C308.671 -0.207536 305.04 5.61082 303.454 11.8738C302.122 17.1297 302.228 22.7024 304.699 28.4267C307.168 34.1484 311.989 39.9994 320.049 45.8293C338.827 59.4109 356.298 60.0922 369.701 60.615C370.946 60.6635 372.156 60.7107 373.328 60.7667C380.248 61.0973 385.79 61.7358 389.646 64.6788C393.481 67.6064 395.724 72.8819 395.837 82.6901L396.426 82.704C396.312 72.8467 394.061 67.3488 390.007 64.2544C385.973 61.1754 380.229 60.5433 373.337 60.2141C372.163 60.158 370.953 60.1106 369.709 60.062C356.311 59.5381 339.016 58.8619 320.398 45.3954C312.401 39.6112 307.661 33.8381 305.243 28.2349C302.826 22.6343 302.719 17.1814 304.027 12.0201C305.326 6.8944 308.018 2.06012 311.227 -2.33401C309.732 0.396816 308.527 3.25478 307.778 6.21189C306.447 11.4678 306.553 17.0405 309.023 22.7648C311.492 28.4865 316.314 34.3375 324.374 40.1674C343.151 53.749 360.622 54.4303 374.026 54.9531L374.027 54.9531L374.027 54.9531L374.032 54.9533L374.035 54.9534C375.277 55.0019 376.483 55.0489 377.653 55.1048C384.573 55.4354 390.114 56.0739 393.97 59.0169C397.806 61.9445 400.048 67.22 400.161 77.0282L400.75 77.0421C400.637 67.1848 398.386 61.6869 394.332 58.5925C390.298 55.5135 384.553 54.8814 377.662 54.5522C376.487 54.4961 375.277 54.4487 374.033 54.4001C360.635 53.8762 343.341 53.2 324.723 39.7335C316.726 33.9493 311.986 28.1762 309.568 22.573C307.151 16.9724 307.044 11.5195 308.351 6.3582C309.027 3.69017 310.081 1.1011 311.389 -1.38804C311.31 -1.10971 311.234 -0.830471 311.163 -0.550343C309.832 4.70553 309.938 10.2783 312.408 16.0026C314.878 21.7243 319.699 27.5753 327.759 33.4052C346.536 46.9868 364.007 47.6681 377.411 48.1908L377.413 48.1909C378.657 48.2394 379.866 48.2866 381.038 48.3426C387.958 48.6732 393.5 49.3117 397.356 52.2547C401.191 55.1823 403.434 60.4578 403.547 70.2659L404.136 70.2799C404.022 60.4225 401.771 54.9247 397.717 51.8302C393.683 48.7513 387.939 48.1192 381.047 47.7899C379.872 47.7338 378.662 47.6865 377.419 47.6379C364.021 47.114 346.726 46.4378 328.108 32.9713C320.111 27.1871 315.371 21.414 312.953 15.8107C310.536 10.2102 310.429 4.75723 311.737 -0.404034C312.049 -1.63723 312.442 -2.85355 312.904 -4.05095C312.526 -0.0611734 313.062 4.07727 314.884 8.29815C317.353 14.0198 322.174 19.8708 330.234 25.7007C349.012 39.2823 366.483 39.9636 379.887 40.4864C381.131 40.5349 382.341 40.5821 383.513 40.6381C390.434 40.9687 395.975 41.6072 399.831 44.5503C403.666 47.4778 405.909 52.7533 406.022 62.5615L406.611 62.5754C406.497 52.7181 404.246 47.2202 400.192 44.1258C396.158 41.0468 390.414 40.4147 383.522 40.0855C382.348 40.0294 381.138 39.982 379.894 39.9334C366.496 39.4096 349.201 38.7333 330.583 25.2668C322.586 19.4826 317.847 13.7095 315.428 8.10627C313.458 3.54022 313.023 -0.927705 313.638 -5.21945C313.889 -5.60671 314.144 -5.99103 314.405 -6.37233C314.5 -6.48578 314.596 -6.59888 314.691 -6.71159C314.993 -4.55483 315.595 -2.36592 316.549 -0.154374C319.019 5.56731 323.84 11.4183 331.9 17.2482C350.677 30.8298 368.148 31.5111 381.552 32.0339C382.797 32.0824 384.007 32.1296 385.179 32.1856C392.099 32.5162 397.641 33.1547 401.497 36.0977C405.332 39.0253 407.575 44.3008 407.688 54.109L408.277 54.1229C408.163 44.2656 405.912 38.7677 401.858 35.6733C397.824 32.5943 392.08 31.9622 385.188 31.633C384.013 31.5768 382.803 31.5295 381.56 31.4809C368.162 30.957 350.867 30.2808 332.249 16.8143C324.252 11.0301 319.512 5.25697 317.094 -0.346245C316.079 -2.69739 315.472 -5.02251 315.205 -7.31096C315.906 -8.12082 316.613 -8.91048 317.32 -9.67874C317.388 -9.51162 317.458 -9.34437 317.531 -9.17699C320 -3.45531 324.821 2.39571 332.881 8.22558C351.658 21.8072 369.13 22.4885 382.533 23.0112L382.536 23.0113L382.539 23.0114L382.544 23.0116L382.549 23.0118C383.789 23.0602 384.993 23.1072 386.16 23.163C393.08 23.4936 398.622 24.1321 402.478 27.0751C406.313 30.0027 408.556 35.2782 408.669 45.0864L409.258 45.1003C409.144 35.2429 406.893 29.7451 402.839 26.6506C398.805 23.5717 393.061 22.9396 386.169 22.6103C384.995 22.5542 383.784 22.5069 382.541 22.4583C369.143 21.9344 351.848 21.2582 333.23 7.79167C325.233 2.00747 320.493 -3.76565 318.075 -9.36887C317.963 -9.62873 317.856 -9.88828 317.754 -10.1475C318.804 -11.2761 319.85 -12.3569 320.87 -13.3859C323.641 -9.35581 327.684 -5.2851 333.298 -1.22464C352.075 12.357 369.546 13.0383 382.95 13.561C384.194 13.6096 385.404 13.6567 386.576 13.7127C393.497 14.0434 399.038 14.6819 402.894 17.6249C406.729 20.5524 408.972 25.828 409.085 35.6361L409.674 35.65C409.56 25.7927 407.309 20.2948 403.255 17.2004C399.221 14.1214 393.477 13.4894 386.585 13.1601C385.411 13.104 384.201 13.0567 382.957 13.0081C369.559 12.4842 352.264 11.8079 333.646 -1.65856C328.019 -5.72842 324.005 -9.79279 321.278 -13.7964L321.462 -13.9815L321.704 -14.2225L321.268 -14.6095C321.162 -14.5035 321.055 -14.3968 320.948 -14.2895C320.912 -14.3451 320.875 -14.4008 320.839 -14.4564C322.59 -16.4006 324.356 -18.2161 326.028 -19.8844L325.593 -20.2714C323.961 -18.6435 322.233 -16.8698 320.515 -14.9681C320.295 -15.3212 320.086 -15.6738 319.886 -16.0258C322.924 -19.9898 326.328 -23.5687 329.413 -26.6467L328.978 -27.0336C325.951 -24.0143 322.597 -20.4938 319.577 -16.5844C319.251 -17.1866 318.954 -17.7872 318.683 -18.3859C322.399 -24.5081 327.47 -29.9434 331.889 -34.3511L331.453 -34.7381C327.126 -30.4215 322.129 -25.0804 318.396 -19.0433C318.063 -19.8344 317.776 -20.6225 317.532 -21.4072C321.101 -29.7571 327.868 -37.1312 333.554 -42.8037L333.119 -43.1906C327.585 -37.6707 320.957 -30.4754 317.276 -22.2917C317.033 -23.1904 316.846 -24.0844 316.711 -24.9732C316.758 -25.1771 316.807 -25.3806 316.859 -25.5836C319.479 -35.9244 327.772 -45.0791 334.536 -51.8263L334.1 -52.2133C327.528 -45.657 319.411 -36.7372 316.521 -26.6049C316.287 -29.4822 316.582 -32.299 317.275 -35.0339C319.895 -45.3746 328.188 -54.5293 334.952 -61.2765L334.516 -61.6635ZM314.565 -7.74686C314.494 -7.60931 314.425 -7.47146 314.356 -7.33332C314.43 -7.43873 314.504 -7.5439 314.579 -7.64881L314.569 -7.75086L314.565 -7.74686ZM316.271 -9.92485C316.483 -10.1987 316.697 -10.4707 316.912 -10.7407C316.829 -10.9724 316.75 -11.2039 316.674 -11.435C316.291 -10.8284 315.922 -10.2149 315.567 -9.5946C315.736 -9.76488 315.905 -9.93365 316.073 -10.1009L316.271 -9.92485ZM320.538 -13.8775C319.927 -13.2614 319.304 -12.6257 318.676 -11.9715C319.261 -12.6676 319.852 -13.3497 320.446 -14.0171L320.506 -13.9258L320.538 -13.8775ZM320.118 -14.5269C319.907 -14.8621 319.705 -15.197 319.511 -15.5316C318.664 -14.4072 317.85 -13.2528 317.081 -12.0708C317.162 -11.8048 317.248 -11.5384 317.34 -11.2716C318.25 -12.3925 319.182 -13.4786 320.118 -14.5269ZM314.411 -8.72306L314.337 -8.58501C314.382 -8.75153 314.429 -8.91774 314.477 -9.08364C314.48 -9.0107 314.483 -8.93772 314.487 -8.8647L314.411 -8.72306ZM316.445 -12.1698C315.959 -11.4141 315.491 -10.6469 315.045 -9.86909C315.042 -10.2091 315.046 -10.5482 315.057 -10.8863C315.368 -11.7613 315.716 -12.6266 316.097 -13.4815C316.2 -13.0454 316.316 -12.6081 316.445 -12.1698ZM319.196 -16.0872C318.389 -15.0235 317.608 -13.9319 316.867 -12.8145C316.726 -13.331 316.605 -13.846 316.501 -14.3594C317.054 -15.5232 317.666 -16.6667 318.326 -17.7878C318.592 -17.2221 318.882 -16.6552 319.196 -16.0872ZM318.028 -18.4399C318.001 -18.5023 317.974 -18.5648 317.947 -18.6272C317.665 -19.2809 317.413 -19.9326 317.192 -20.5821C316.768 -19.5202 316.398 -18.4431 316.09 -17.3523C316.139 -16.6851 316.216 -16.0146 316.323 -15.341C316.849 -16.392 317.42 -17.4255 318.028 -18.4399ZM315.889 -14.4449C315.806 -14.8681 315.735 -15.2901 315.676 -15.7109C315.471 -14.7852 315.312 -13.8505 315.205 -12.9075C315.421 -13.4238 315.649 -13.9363 315.889 -14.4449ZM316.911 -21.4545C316.588 -20.689 316.292 -19.9151 316.026 -19.1334C316.027 -20.583 316.158 -22.0157 316.4 -23.4287C316.541 -22.7732 316.711 -22.1151 316.911 -21.4545ZM292.347 19.8258C295.006 9.33223 303.401 0.0868259 310.162 -6.65754L310.597 -6.27056C303.833 0.476598 295.54 9.63133 292.92 19.9721C291.613 25.1333 291.72 30.5863 294.137 36.1868C296.555 41.7901 301.295 47.5632 309.292 53.3474C327.91 66.8139 345.204 67.4901 358.602 68.014C359.846 68.0626 361.056 68.1099 362.231 68.166C369.122 68.4953 374.867 69.1274 378.901 72.2064C382.955 75.3008 385.206 80.7986 385.319 90.656L384.731 90.642C384.617 80.8339 382.375 75.5584 378.539 72.6308C374.684 69.6878 369.142 69.0493 362.222 68.7187C361.049 68.6627 359.84 68.6155 358.595 68.5669C345.191 68.0442 327.72 67.3629 308.943 53.7813C300.883 47.9514 296.061 42.1004 293.592 36.3787C291.122 30.6544 291.016 25.0816 292.347 19.8258ZM303.726 -4.08031C296.965 2.66406 288.57 11.9095 285.912 22.403C284.58 27.6589 284.686 33.2316 287.156 38.9559C289.626 44.6776 294.447 50.5287 302.507 56.3585C321.284 69.9401 338.755 70.6214 352.159 71.1442L352.159 71.1442C353.404 71.1927 354.614 71.2399 355.786 71.2959C362.706 71.6265 368.248 72.265 372.104 75.208C375.939 78.1356 378.182 83.4111 378.295 93.2193L378.884 93.2332C378.77 83.3759 376.519 77.878 372.465 74.7836C368.431 71.7046 362.687 71.0725 355.795 70.7433C354.621 70.6872 353.41 70.6398 352.167 70.5912C338.769 70.0674 321.474 69.3911 302.856 55.9246C294.859 50.1404 290.119 44.3673 287.701 38.7641C285.284 33.1635 285.177 27.7106 286.485 22.5493C289.105 12.2086 297.398 3.05383 304.162 -3.69333L303.726 -4.08031ZM279.127 24.3579C281.786 13.8644 290.181 4.61897 296.942 -2.1254L297.377 -1.73842C290.613 5.00874 282.32 14.1635 279.7 24.5042C278.393 29.6655 278.5 35.1184 280.917 40.719C283.335 46.3222 288.075 52.0953 296.071 57.8795C314.689 71.346 331.984 72.0223 345.382 72.5461C346.626 72.5948 347.836 72.6421 349.01 72.6982C355.902 73.0274 361.647 73.6595 365.681 76.7385C369.735 79.8329 371.986 85.3308 372.099 95.1881L371.51 95.1742C371.397 85.3661 369.155 80.0905 365.319 77.163C361.463 74.2199 355.922 73.5814 349.002 73.2508C347.829 73.1948 346.62 73.1476 345.375 73.0991C331.971 72.5764 314.5 71.895 295.723 58.3134C287.663 52.4836 282.841 46.6325 280.372 40.9109C277.902 35.1865 277.795 29.6138 279.127 24.3579ZM289.952 -0.557702C283.191 6.18667 274.796 15.4321 272.138 25.9256C270.806 31.1815 270.912 36.7542 273.383 42.4786C275.852 48.2002 280.673 54.0513 288.734 59.8811C307.511 73.4627 324.982 74.1441 338.386 74.6668C339.63 74.7153 340.84 74.7625 342.012 74.8185C348.933 75.1491 354.474 75.7876 358.33 78.7307C362.165 81.6582 364.408 86.9337 364.521 96.7419L365.11 96.7558C364.996 86.8985 362.745 81.4006 358.691 78.3062C354.657 75.2272 348.913 74.5951 342.021 74.2659C340.847 74.2098 339.637 74.1625 338.393 74.1138C324.995 73.59 307.7 72.9137 289.082 59.4472C281.085 53.663 276.346 47.8899 273.927 42.2867C271.511 36.6861 271.403 31.2332 272.711 26.0719C275.331 15.7312 283.624 6.57644 290.388 -0.17072L289.952 -0.557702ZM265.051 27.3041C267.71 16.8106 276.105 7.56518 282.866 0.820812L283.301 1.20779C276.538 7.95495 268.244 17.1097 265.625 27.4504C264.317 32.6117 264.424 38.0646 266.841 43.6652C269.259 49.2684 273.999 55.0415 281.996 60.8257C300.614 74.2922 317.909 74.9685 331.307 75.4923C332.55 75.541 333.76 75.5883 334.935 75.6444C341.827 75.9737 347.571 76.6057 351.605 79.6847C355.659 82.7791 357.91 88.277 358.024 98.1343L357.435 98.1204C357.322 88.3123 355.079 83.0367 351.243 80.1092C347.388 77.1662 341.846 76.5276 334.926 76.197C333.754 76.141 332.544 76.0938 331.299 76.0453C317.895 75.5226 300.424 74.8412 281.647 61.2597C273.587 55.4298 268.765 49.5788 266.296 43.8571C263.826 38.1327 263.72 32.56 265.051 27.3041ZM275.764 2.16757C269.003 8.91193 260.608 18.1573 257.95 28.6509C256.618 33.9067 256.724 39.4795 259.195 45.2038C261.664 50.9255 266.485 56.7765 274.545 62.6064C293.323 76.188 310.794 76.8693 324.198 77.3921C325.442 77.4406 326.652 77.4878 327.824 77.5438C334.744 77.8744 340.286 78.5129 344.142 81.4559C347.977 84.3835 350.22 89.659 350.333 99.4672L350.922 99.4811C350.808 89.6238 348.557 84.1259 344.503 81.0315C340.469 77.9525 334.725 77.3204 327.833 76.9911C326.659 76.935 325.449 76.8877 324.205 76.8391C310.807 76.3152 293.512 75.639 274.894 62.1725C266.897 56.3883 262.158 50.6152 259.739 45.0119C257.323 39.4114 257.215 33.9584 258.523 28.7972C261.143 18.4564 269.436 9.3017 276.2 2.55455L275.764 2.16757ZM250.891 30.084C253.549 19.5904 261.944 10.345 268.705 3.60068L269.141 3.98766C262.377 10.7348 254.084 19.8896 251.464 30.2303C250.156 35.3916 250.264 40.8445 252.68 46.4451C255.099 52.0483 259.838 57.8214 267.835 63.6056C286.453 77.0721 303.748 77.7483 317.146 78.2722C318.39 78.3208 319.6 78.3682 320.774 78.4243C327.666 78.7535 333.41 79.3856 337.444 82.4646C341.498 85.559 343.749 91.0569 343.863 100.914L343.274 100.9C343.161 91.0921 340.918 85.8166 337.083 82.889C333.227 79.946 327.686 79.3075 320.765 78.9769C319.593 78.9209 318.383 78.8737 317.139 78.8252C303.735 78.3024 286.264 77.6211 267.487 64.0395C259.426 58.2096 254.605 52.3586 252.136 46.6369C249.665 40.9126 249.559 35.3399 250.891 30.084ZM261.736 5.20689C254.975 11.9513 246.58 21.1967 243.921 31.6902C242.59 36.9461 242.696 42.5188 245.166 48.2431C247.636 53.9648 252.457 59.8158 260.517 65.6457C279.294 79.2273 296.765 79.9086 310.169 80.4314L310.169 80.4314C311.414 80.4799 312.624 80.5271 313.796 80.5831C320.716 80.9137 326.258 81.5522 330.114 84.4953C333.949 87.4228 336.192 92.6983 336.305 102.506L336.894 102.52C336.78 92.6631 334.529 87.1652 330.475 84.0708C326.441 80.9918 320.697 80.3597 313.805 80.0305C312.63 79.9744 311.42 79.927 310.177 79.8784C296.779 79.3546 279.484 78.6783 260.866 65.2118C252.869 59.4276 248.129 53.6545 245.711 48.0513C243.294 42.4507 243.187 36.9978 244.495 31.8365C247.115 21.4958 255.408 12.341 262.171 5.59387L261.736 5.20689ZM237.075 33.5295C239.734 23.036 248.129 13.7906 254.89 7.04624L255.325 7.43322C248.562 14.1804 240.268 23.3351 237.649 33.6759C236.341 38.8371 236.448 44.2901 238.865 49.8906C241.283 55.4938 246.023 61.267 254.02 67.0512C272.638 80.5177 289.933 81.1939 303.33 81.7178C304.574 81.7664 305.784 81.8137 306.959 81.8698C313.85 82.1991 319.595 82.8312 323.629 85.9101C327.683 89.0046 329.934 94.5024 330.048 104.36L329.459 104.346C329.346 94.5377 327.103 89.2622 323.267 86.3346C319.412 83.3916 313.87 82.7531 306.95 82.4225C305.778 82.3664 304.568 82.3193 303.323 82.2707L303.323 82.2707C289.919 81.748 272.448 81.0667 253.671 67.4851C245.611 61.6552 240.789 55.8042 238.32 50.0825C235.85 44.3582 235.744 38.7854 237.075 33.5295ZM248.191 9.15866C241.43 15.903 233.035 25.1484 230.377 35.642C229.045 40.8978 229.151 46.4706 231.622 52.1949C234.091 57.9166 238.912 63.7676 246.972 69.5975C265.749 83.1791 283.221 83.8604 296.624 84.3832L296.624 84.3831L296.624 84.3831C297.869 84.4317 299.079 84.4789 300.251 84.5349C307.171 84.8655 312.713 85.504 316.569 88.447C320.404 91.3746 322.647 96.6501 322.76 106.458L323.349 106.472C323.235 96.6148 320.984 91.117 316.93 88.0226C312.896 84.9436 307.152 84.3115 300.26 83.9822C299.086 83.9261 297.875 83.8788 296.632 83.8302C283.234 83.3063 265.939 82.6301 247.321 69.1636C239.324 63.3794 234.584 57.6063 232.166 52.003C229.749 46.4025 229.642 40.9495 230.95 35.7883C233.57 25.4475 241.863 16.2928 248.627 9.54564L248.191 9.15866Z" fill="url(#paint0_radial_30_175)" fill-opacity="0.58"/>
<path d="M20.82 29V23.41L24.52 29H25.5V21.77H24.52V27.36L20.82 21.77H19.84V29H20.82ZM29.1338 29.12C30.3438 29.12 31.1638 28.53 31.4038 27.48H30.5238C30.3638 28.04 29.8838 28.34 29.1538 28.34C28.2238 28.34 27.6838 27.77 27.6138 26.74L31.3937 26.73V26.38C31.3937 24.93 30.4838 23.97 29.0938 23.97C27.6738 23.97 26.7038 25.03 26.7038 26.56C26.7038 28.08 27.6938 29.12 29.1338 29.12ZM29.0938 24.76C29.9238 24.76 30.4538 25.3 30.4538 26.11H27.6338C27.7538 25.25 28.2738 24.76 29.0938 24.76ZM33.3277 29H34.2577L35.1077 26.39C35.2877 25.8 35.3777 25.48 35.4277 25.24C35.4777 25.51 35.5777 25.89 35.7377 26.38L36.5877 29H37.4777L39.1477 24.11H38.1677L37.3477 26.65C37.2077 27.08 37.1177 27.42 37.0377 27.81C36.9577 27.46 36.7977 26.89 36.7177 26.65L35.9077 24.11H34.9477L34.1277 26.65C34.0177 26.97 33.8877 27.38 33.8077 27.81C33.7177 27.38 33.6177 27.01 33.5077 26.65L32.6977 24.11H31.7277L33.3277 29ZM43.1478 29L43.7878 27.2H46.8278L47.4778 29H48.5078L45.8578 21.77H44.7678L42.1278 29H43.1478ZM45.1878 23.33C45.2378 23.18 45.2878 23.01 45.3078 22.91C45.3278 23.02 45.3778 23.19 45.4278 23.33L46.5378 26.35H44.0878L45.1878 23.33ZM50.2689 29V21.64H49.3289V29H50.2689ZM52.5027 29L52.5727 28.11C52.8927 28.78 53.5427 29.12 54.3127 29.12C55.7327 29.12 56.6127 28.06 56.6127 26.58C56.6127 25.07 55.7727 23.97 54.3727 23.97C53.5727 23.97 52.9127 24.31 52.5927 24.95V21.64H51.6527V29H52.5027ZM52.6027 26.54C52.6027 25.54 53.1827 24.82 54.1427 24.82C55.1027 24.82 55.6727 25.54 55.6727 26.54C55.6727 27.55 55.1027 28.27 54.1427 28.27C53.1827 28.27 52.6027 27.56 52.6027 26.54ZM60.9116 24.11V26.69C60.9116 27.74 60.4416 28.29 59.5816 28.29C58.8616 28.29 58.4116 27.89 58.4116 26.84V24.11H57.4716V27.15C57.4716 28.35 58.1116 29.12 59.2516 29.12C59.9716 29.12 60.6216 28.77 60.9016 28.26L61.0016 29H61.8416V24.11H60.9116ZM64.1454 29V26.1C64.1454 25.32 64.6154 24.83 65.3254 24.83C65.9854 24.83 66.4054 25.25 66.4054 26.02V29H67.3354V26.1C67.3354 25.32 67.8054 24.82 68.5154 24.82C69.1754 24.82 69.6054 25.26 69.6054 26.03V29H70.5254V25.8C70.5254 24.67 69.8454 23.97 68.7254 23.97C67.9654 23.97 67.3754 24.35 67.1454 24.96C66.8954 24.35 66.3554 23.97 65.5954 23.97C64.9054 23.97 64.3854 24.29 64.1354 24.75L64.0454 24.11H63.2054V29H64.1454Z" fill="#FBFBFB"/>
<path d="M20.2642 64V49.4545H30.0653V51.9901H23.3395V55.456H29.5611V57.9915H23.3395V61.4645H30.0938V64H20.2642ZM35.479 49.4545V64H32.4535V49.4545H35.479ZM42.8743 64.2131C41.7521 64.2131 40.7862 63.9858 39.9766 63.5312C39.1716 63.072 38.5514 62.4233 38.1158 61.5852C37.6802 60.7424 37.4624 59.7457 37.4624 58.5952C37.4624 57.473 37.6802 56.4882 38.1158 55.6406C38.5514 54.7931 39.1645 54.1326 39.9553 53.6591C40.7507 53.1856 41.6835 52.9489 42.7536 52.9489C43.4732 52.9489 44.1432 53.0649 44.7635 53.2969C45.3885 53.5241 45.933 53.8674 46.397 54.3267C46.8658 54.786 47.2304 55.3636 47.4908 56.0597C47.7512 56.7509 47.8814 57.5606 47.8814 58.4886V59.3196H38.6697V57.4446H45.0334C45.0334 57.009 44.9387 56.6231 44.7493 56.2869C44.5599 55.9508 44.2971 55.688 43.9609 55.4986C43.6295 55.3045 43.2436 55.2074 42.8033 55.2074C42.344 55.2074 41.9368 55.3139 41.5817 55.527C41.2313 55.7353 40.9567 56.017 40.7578 56.3722C40.5589 56.7225 40.4571 57.1132 40.4524 57.544V59.3267C40.4524 59.8665 40.5518 60.3329 40.7507 60.7259C40.9543 61.1188 41.2408 61.4219 41.6101 61.6349C41.9794 61.848 42.4174 61.9545 42.924 61.9545C43.2602 61.9545 43.5679 61.9072 43.8473 61.8125C44.1267 61.7178 44.3658 61.5758 44.5646 61.3864C44.7635 61.197 44.915 60.965 45.0192 60.6903L47.8175 60.875C47.6754 61.5473 47.3842 62.1345 46.9439 62.6364C46.5083 63.1335 45.9448 63.5218 45.2536 63.8011C44.567 64.0758 43.7739 64.2131 42.8743 64.2131ZM54.7848 64.2131C53.6674 64.2131 52.7062 63.9763 51.9013 63.5028C51.1011 63.0246 50.4856 62.3617 50.0547 61.5142C49.6286 60.6667 49.4155 59.6913 49.4155 58.5881C49.4155 57.4706 49.6309 56.4905 50.0618 55.6477C50.4974 54.8002 51.1153 54.1397 51.9155 53.6662C52.7157 53.188 53.6674 52.9489 54.7706 52.9489C55.7223 52.9489 56.5556 53.1217 57.2706 53.4673C57.9856 53.813 58.5514 54.2983 58.968 54.9233C59.3847 55.5483 59.6143 56.2822 59.657 57.125H56.8018C56.7214 56.5805 56.5083 56.1425 56.1626 55.8111C55.8217 55.4749 55.3743 55.3068 54.8203 55.3068C54.3516 55.3068 53.942 55.4347 53.5916 55.6903C53.246 55.9413 52.9761 56.3082 52.782 56.7912C52.5878 57.2741 52.4908 57.8589 52.4908 58.5455C52.4908 59.2415 52.5855 59.8333 52.7749 60.321C52.969 60.8087 53.2412 61.1804 53.5916 61.4361C53.942 61.6918 54.3516 61.8196 54.8203 61.8196C55.166 61.8196 55.4761 61.7486 55.7507 61.6065C56.0301 61.4645 56.2597 61.2585 56.4396 60.9886C56.6243 60.714 56.745 60.3849 56.8018 60.0014H59.657C59.6096 60.8348 59.3823 61.5687 58.9751 62.2031C58.5727 62.8329 58.0163 63.3253 57.3061 63.6804C56.5959 64.0355 55.7554 64.2131 54.7848 64.2131ZM67.3967 53.0909V55.3636H60.8271V53.0909H67.3967ZM62.3185 50.4773H65.3441V60.6477C65.3441 60.9271 65.3867 61.1449 65.4719 61.3011C65.5572 61.4527 65.6755 61.5592 65.8271 61.6207C65.9833 61.6823 66.1632 61.7131 66.3668 61.7131C66.5089 61.7131 66.6509 61.7012 66.793 61.6776C66.935 61.6491 67.0439 61.6278 67.1197 61.6136L67.5955 63.8651C67.444 63.9124 67.2309 63.9669 66.9563 64.0284C66.6817 64.0947 66.3479 64.1349 65.9549 64.1491C65.2257 64.1776 64.5865 64.0805 64.0373 63.858C63.4928 63.6354 63.069 63.2898 62.766 62.821C62.4629 62.3523 62.3138 61.7604 62.3185 61.0455V50.4773ZM69.3675 64V53.0909H72.3008V54.9943H72.4144C72.6133 54.3172 72.9471 53.8059 73.4158 53.4602C73.8846 53.1098 74.4244 52.9347 75.0352 52.9347C75.1867 52.9347 75.35 52.9441 75.5252 52.9631C75.7004 52.982 75.8543 53.008 75.9869 53.0412V55.7259C75.8448 55.6832 75.6483 55.6454 75.3974 55.6122C75.1464 55.5791 74.9168 55.5625 74.7085 55.5625C74.2634 55.5625 73.8656 55.6596 73.5153 55.8537C73.1696 56.0431 72.895 56.3082 72.6914 56.6491C72.4925 56.9901 72.3931 57.383 72.3931 57.8281V64H69.3675ZM77.5511 64V53.0909H80.5767V64H77.5511ZM79.071 51.6847C78.6212 51.6847 78.2353 51.5355 77.9134 51.2372C77.5961 50.9342 77.4375 50.572 77.4375 50.1506C77.4375 49.7339 77.5961 49.3764 77.9134 49.0781C78.2353 48.7751 78.6212 48.6236 79.071 48.6236C79.5208 48.6236 79.9044 48.7751 80.2216 49.0781C80.5436 49.3764 80.7045 49.7339 80.7045 50.1506C80.7045 50.572 80.5436 50.9342 80.2216 51.2372C79.9044 51.5355 79.5208 51.6847 79.071 51.6847ZM87.9293 64.2131C86.8119 64.2131 85.8507 63.9763 85.0458 63.5028C84.2456 63.0246 83.6301 62.3617 83.1992 61.5142C82.7731 60.6667 82.56 59.6913 82.56 58.5881C82.56 57.4706 82.7754 56.4905 83.2063 55.6477C83.6419 54.8002 84.2598 54.1397 85.06 53.6662C85.8602 53.188 86.8119 52.9489 87.9151 52.9489C88.8668 52.9489 89.7002 53.1217 90.4151 53.4673C91.1301 53.813 91.6959 54.2983 92.1126 54.9233C92.5292 55.5483 92.7589 56.2822 92.8015 57.125H89.9464C89.8659 56.5805 89.6528 56.1425 89.3072 55.8111C88.9663 55.4749 88.5188 55.3068 87.9648 55.3068C87.4961 55.3068 87.0865 55.4347 86.7362 55.6903C86.3905 55.9413 86.1206 56.3082 85.9265 56.7912C85.7324 57.2741 85.6353 57.8589 85.6353 58.5455C85.6353 59.2415 85.73 59.8333 85.9194 60.321C86.1135 60.8087 86.3858 61.1804 86.7362 61.4361C87.0865 61.6918 87.4961 61.8196 87.9648 61.8196C88.3105 61.8196 88.6206 61.7486 88.8952 61.6065C89.1746 61.4645 89.4042 61.2585 89.5842 60.9886C89.7688 60.714 89.8896 60.3849 89.9464 60.0014H92.8015C92.7541 60.8348 92.5269 61.5687 92.1197 62.2031C91.7172 62.8329 91.1609 63.3253 90.4506 63.6804C89.7404 64.0355 88.9 64.2131 87.9293 64.2131ZM98.8704 51.9901V49.4545H110.816V51.9901H106.363V64H103.324V51.9901H98.8704ZM116.116 64.2131C114.994 64.2131 114.028 63.9858 113.219 63.5312C112.414 63.072 111.794 62.4233 111.358 61.5852C110.922 60.7424 110.705 59.7457 110.705 58.5952C110.705 57.473 110.922 56.4882 111.358 55.6406C111.794 54.7931 112.407 54.1326 113.197 53.6591C113.993 53.1856 114.926 52.9489 115.996 52.9489C116.715 52.9489 117.385 53.0649 118.006 53.2969C118.631 53.5241 119.175 53.8674 119.639 54.3267C120.108 54.786 120.473 55.3636 120.733 56.0597C120.993 56.7509 121.124 57.5606 121.124 58.4886V59.3196H111.912V57.4446H118.276C118.276 57.009 118.181 56.6231 117.991 56.2869C117.802 55.9508 117.539 55.688 117.203 55.4986C116.872 55.3045 116.486 55.2074 116.045 55.2074C115.586 55.2074 115.179 55.3139 114.824 55.527C114.473 55.7353 114.199 56.017 114 56.3722C113.801 56.7225 113.699 57.1132 113.695 57.544V59.3267C113.695 59.8665 113.794 60.3329 113.993 60.7259C114.196 61.1188 114.483 61.4219 114.852 61.6349C115.222 61.848 115.66 61.9545 116.166 61.9545C116.502 61.9545 116.81 61.9072 117.089 61.8125C117.369 61.7178 117.608 61.5758 117.807 61.3864C118.006 61.197 118.157 60.965 118.261 60.6903L121.06 60.875C120.918 61.5473 120.626 62.1345 120.186 62.6364C119.75 63.1335 119.187 63.5218 118.496 63.8011C117.809 64.0758 117.016 64.2131 116.116 64.2131ZM126.209 64.206C125.513 64.206 124.893 64.0852 124.348 63.8438C123.804 63.5975 123.373 63.2353 123.055 62.7571C122.743 62.2741 122.587 61.6728 122.587 60.9531C122.587 60.3471 122.698 59.8381 122.92 59.4261C123.143 59.0142 123.446 58.6828 123.83 58.4318C124.213 58.1809 124.649 57.9915 125.136 57.8636C125.629 57.7358 126.145 57.6458 126.685 57.5938C127.319 57.5275 127.83 57.4659 128.219 57.4091C128.607 57.3475 128.889 57.2576 129.064 57.1392C129.239 57.0208 129.327 56.8456 129.327 56.6136V56.571C129.327 56.1212 129.185 55.7732 128.901 55.527C128.621 55.2808 128.223 55.1577 127.707 55.1577C127.163 55.1577 126.73 55.2784 126.408 55.5199C126.086 55.7566 125.873 56.0549 125.768 56.4148L122.97 56.1875C123.112 55.5246 123.392 54.9517 123.808 54.4688C124.225 53.9811 124.762 53.607 125.42 53.3466C126.083 53.0814 126.85 52.9489 127.722 52.9489C128.328 52.9489 128.908 53.0199 129.462 53.1619C130.02 53.304 130.515 53.5241 130.946 53.8224C131.382 54.1207 131.725 54.5043 131.976 54.973C132.227 55.437 132.352 55.9934 132.352 56.642V64H129.483V62.4872H129.398C129.223 62.8281 128.988 63.1288 128.695 63.3892C128.401 63.6449 128.048 63.8461 127.636 63.9929C127.224 64.1349 126.749 64.206 126.209 64.206ZM127.075 62.1179C127.52 62.1179 127.913 62.0303 128.254 61.8551C128.595 61.6752 128.863 61.4337 129.057 61.1307C129.251 60.8277 129.348 60.4844 129.348 60.1009V58.9432C129.253 59.0047 129.123 59.0616 128.957 59.1136C128.796 59.161 128.614 59.206 128.411 59.2486C128.207 59.2865 128.003 59.322 127.8 59.3551C127.596 59.3835 127.411 59.4096 127.246 59.4332C126.891 59.4853 126.58 59.5682 126.315 59.6818C126.05 59.7955 125.844 59.9493 125.697 60.1435C125.551 60.3329 125.477 60.5696 125.477 60.8537C125.477 61.2656 125.626 61.5805 125.925 61.7983C126.228 62.0114 126.611 62.1179 127.075 62.1179ZM134.7 64V53.0909H137.633V54.9943H137.746C137.945 54.3172 138.279 53.8059 138.748 53.4602C139.217 53.1098 139.756 52.9347 140.367 52.9347C140.519 52.9347 140.682 52.9441 140.857 52.9631C141.032 52.982 141.186 53.008 141.319 53.0412V55.7259C141.177 55.6832 140.98 55.6454 140.729 55.6122C140.478 55.5791 140.249 55.5625 140.04 55.5625C139.595 55.5625 139.198 55.6596 138.847 55.8537C138.502 56.0431 138.227 56.3082 138.023 56.6491C137.825 56.9901 137.725 57.383 137.725 57.8281V64H134.7ZM151.96 56.2017L149.19 56.3722C149.143 56.1354 149.041 55.9223 148.885 55.733C148.728 55.5388 148.522 55.3849 148.267 55.2713C148.016 55.1529 147.715 55.0938 147.365 55.0938C146.896 55.0938 146.501 55.1932 146.179 55.392C145.857 55.5862 145.696 55.8466 145.696 56.1733C145.696 56.4337 145.8 56.6539 146.008 56.8338C146.217 57.0137 146.574 57.1581 147.081 57.267L149.055 57.6648C150.116 57.8826 150.906 58.233 151.427 58.7159C151.948 59.1989 152.208 59.8333 152.208 60.6193C152.208 61.3343 151.998 61.9616 151.576 62.5014C151.16 63.0412 150.587 63.4626 149.858 63.7656C149.133 64.0639 148.297 64.2131 147.35 64.2131C145.906 64.2131 144.756 63.9124 143.899 63.3111C143.047 62.705 142.547 61.8812 142.4 60.8395L145.376 60.6832C145.466 61.1236 145.684 61.4598 146.029 61.6918C146.375 61.919 146.818 62.0327 147.358 62.0327C147.888 62.0327 148.314 61.9309 148.636 61.7273C148.963 61.5189 149.128 61.2514 149.133 60.9247C149.128 60.6501 149.012 60.4252 148.785 60.25C148.558 60.0701 148.208 59.9328 147.734 59.8381L145.845 59.4616C144.779 59.2486 143.986 58.8793 143.466 58.3537C142.949 57.8281 142.691 57.1581 142.691 56.3438C142.691 55.643 142.881 55.0393 143.26 54.5327C143.643 54.026 144.181 53.6354 144.872 53.3608C145.568 53.0862 146.382 52.9489 147.315 52.9489C148.693 52.9489 149.777 53.2401 150.568 53.8224C151.363 54.4048 151.827 55.1979 151.96 56.2017Z" fill="white"/>
<path d="M20.0387 87V77.5455H23.5011C24.172 77.5455 24.7275 77.6562 25.1676 77.8778C25.6077 78.0964 25.937 78.3933 26.1555 78.7688C26.3741 79.1412 26.4833 79.5613 26.4833 80.0291C26.4833 80.4231 26.411 80.7554 26.2663 81.0263C26.1217 81.294 25.9278 81.5095 25.6847 81.6726C25.4446 81.8326 25.1799 81.9496 24.8906 82.0234V82.1158C25.2045 82.1312 25.5108 82.2327 25.8093 82.4205C26.1109 82.6051 26.3602 82.8683 26.5572 83.2099C26.7541 83.5515 26.8526 83.967 26.8526 84.4563C26.8526 84.9395 26.7388 85.3735 26.511 85.7582C26.2863 86.1398 25.9386 86.4429 25.4677 86.6676C24.9968 86.8892 24.3951 87 23.6626 87H20.0387ZM21.4652 85.7766H23.5241C24.2074 85.7766 24.6967 85.6443 24.9922 85.3796C25.2876 85.1149 25.4354 84.7841 25.4354 84.3871C25.4354 84.0885 25.36 83.8146 25.2092 83.5653C25.0584 83.3161 24.8429 83.1175 24.5629 82.9698C24.2859 82.8221 23.9566 82.7482 23.5749 82.7482H21.4652V85.7766ZM21.4652 81.6357H23.3764C23.6965 81.6357 23.9843 81.5741 24.2397 81.451C24.4982 81.3279 24.7029 81.1555 24.8537 80.9339C25.0076 80.7093 25.0845 80.4446 25.0845 80.1399C25.0845 79.7491 24.9476 79.4213 24.6737 79.1566C24.3997 78.8919 23.9796 78.7596 23.4134 78.7596H21.4652V81.6357ZM32.9256 84.0593V79.9091H34.3105V87H32.9533V85.772H32.8794C32.7163 86.1506 32.4547 86.466 32.0946 86.7184C31.7376 86.9677 31.2929 87.0923 30.7605 87.0923C30.305 87.0923 29.9018 86.9923 29.551 86.7923C29.2032 86.5891 28.9293 86.2891 28.7292 85.892C28.5323 85.495 28.4338 85.0041 28.4338 84.4194V79.9091H29.8141V84.2532C29.8141 84.7364 29.948 85.1211 30.2157 85.4073C30.4835 85.6935 30.8313 85.8366 31.2591 85.8366C31.5176 85.8366 31.7746 85.772 32.03 85.6428C32.2885 85.5135 32.5024 85.3181 32.6717 85.0565C32.844 84.7949 32.9287 84.4625 32.9256 84.0593ZM39.1521 87.1431C38.4658 87.1431 37.8749 86.9877 37.3794 86.6768C36.8869 86.3629 36.5084 85.9305 36.2437 85.3796C35.979 84.8287 35.8467 84.1978 35.8467 83.4869C35.8467 82.7667 35.9821 82.1312 36.2529 81.5803C36.5238 81.0263 36.9054 80.5939 37.3978 80.283C37.8902 79.9722 38.4704 79.8168 39.1382 79.8168C39.6768 79.8168 40.1569 79.9168 40.5786 80.1168C41.0002 80.3138 41.3403 80.5908 41.5988 80.9478C41.8604 81.3048 42.0158 81.7218 42.0651 82.1989H40.7217C40.6478 81.8665 40.4785 81.5803 40.2139 81.3402C39.9523 81.1001 39.6014 80.9801 39.1613 80.9801C38.7766 80.9801 38.4396 81.0817 38.1503 81.2848C37.8641 81.4848 37.641 81.7711 37.4809 82.1435C37.3209 82.5128 37.2409 82.9498 37.2409 83.4545C37.2409 83.9716 37.3193 84.4179 37.4763 84.7933C37.6333 85.1688 37.8548 85.4596 38.1411 85.6658C38.4304 85.872 38.7704 85.9751 39.1613 85.9751C39.4229 85.9751 39.6599 85.9274 39.8722 85.832C40.0877 85.7335 40.2677 85.5935 40.4124 85.4119C40.5601 85.2304 40.6632 85.0118 40.7217 84.7564H42.0651C42.0158 85.215 41.8666 85.6243 41.6173 85.9844C41.368 86.3445 41.0341 86.6276 40.6155 86.8338C40.2 87.04 39.7122 87.1431 39.1521 87.1431ZM44.8107 84.5948L44.8015 82.9098H45.0415L47.8668 79.9091H49.5195L46.2972 83.3253H46.0803L44.8107 84.5948ZM43.5412 87V77.5455H44.9215V87H43.5412ZM48.0192 87L45.4801 83.63L46.4311 82.6651L49.7134 87H48.0192ZM53.5416 87.1431C52.843 87.1431 52.2413 86.9938 51.7366 86.6953C51.2349 86.3937 50.8472 85.9705 50.5732 85.4258C50.3024 84.878 50.167 84.2363 50.167 83.5007C50.167 82.7744 50.3024 82.1342 50.5732 81.5803C50.8472 81.0263 51.2288 80.5939 51.7181 80.283C52.2106 79.9722 52.7861 79.8168 53.4447 79.8168C53.8448 79.8168 54.2326 79.8829 54.608 80.0153C54.9835 80.1476 55.3205 80.3554 55.6191 80.6385C55.9176 80.9216 56.153 81.2894 56.3254 81.7418C56.4977 82.1912 56.5839 82.7375 56.5839 83.3807V83.87H50.9472V82.8359H55.2313C55.2313 82.4728 55.1574 82.1512 55.0097 81.8711C54.8619 81.5879 54.6542 81.3648 54.3865 81.2017C54.1218 81.0386 53.8109 80.957 53.4539 80.957C53.0661 80.957 52.7276 81.0524 52.4383 81.2433C52.1521 81.431 51.9305 81.6772 51.7735 81.9819C51.6196 82.2835 51.5427 82.6113 51.5427 82.9652V83.7731C51.5427 84.247 51.6258 84.6502 51.792 84.9826C51.9613 85.315 52.1967 85.5689 52.4983 85.7443C52.7999 85.9167 53.1523 86.0028 53.5555 86.0028C53.8171 86.0028 54.0556 85.9659 54.271 85.892C54.4865 85.8151 54.6727 85.7012 54.8296 85.5504C54.9866 85.3996 55.1066 85.2134 55.1897 84.9918L56.4962 85.2273C56.3915 85.612 56.2038 85.949 55.933 86.2383C55.6652 86.5245 55.3282 86.7476 54.922 86.9077C54.5188 87.0646 54.0587 87.1431 53.5416 87.1431ZM61.4254 79.9091V81.017H57.5522V79.9091H61.4254ZM58.5909 78.2102H59.9712V84.918C59.9712 85.1857 60.0112 85.3873 60.0913 85.5227C60.1713 85.6551 60.2744 85.7459 60.4006 85.7951C60.5298 85.8413 60.6699 85.8643 60.8207 85.8643C60.9315 85.8643 61.0284 85.8567 61.1115 85.8413C61.1946 85.8259 61.2592 85.8136 61.3054 85.8043L61.5547 86.9446C61.4747 86.9754 61.3608 87.0062 61.2131 87.0369C61.0653 87.0708 60.8807 87.0893 60.6591 87.0923C60.2959 87.0985 59.9574 87.0339 59.6435 86.8984C59.3295 86.763 59.0756 86.5537 58.8817 86.2706C58.6879 85.9875 58.5909 85.632 58.5909 85.2042V78.2102ZM64.485 82.7898V87H63.1047V77.5455H64.4665V81.0632H64.5542C64.7204 80.6816 64.9743 80.3784 65.316 80.1538C65.6576 79.9291 66.1038 79.8168 66.6547 79.8168C67.141 79.8168 67.5657 79.9168 67.9289 80.1168C68.2951 80.3169 68.5783 80.6154 68.7783 81.0124C68.9814 81.4064 69.083 81.8988 69.083 82.4897V87H67.7027V82.6559C67.7027 82.1358 67.5688 81.7326 67.301 81.4464C67.0333 81.1571 66.6609 81.0124 66.1839 81.0124C65.8576 81.0124 65.5653 81.0817 65.3067 81.2202C65.0513 81.3587 64.8497 81.5618 64.702 81.8295C64.5573 82.0942 64.485 82.4143 64.485 82.7898ZM73.9811 87.1431C73.2825 87.1431 72.6808 86.9938 72.176 86.6953C71.6744 86.3937 71.2866 85.9705 71.0127 85.4258C70.7419 84.878 70.6064 84.2363 70.6064 83.5007C70.6064 82.7744 70.7419 82.1342 71.0127 81.5803C71.2866 81.0263 71.6682 80.5939 72.1576 80.283C72.65 79.9722 73.2255 79.8168 73.8841 79.8168C74.2842 79.8168 74.672 79.8829 75.0475 80.0153C75.423 80.1476 75.76 80.3554 76.0585 80.6385C76.357 80.9216 76.5925 81.2894 76.7648 81.7418C76.9372 82.1912 77.0233 82.7375 77.0233 83.3807V83.87H71.3866V82.8359H75.6707C75.6707 82.4728 75.5969 82.1512 75.4491 81.8711C75.3014 81.5879 75.0937 81.3648 74.8259 81.2017C74.5612 81.0386 74.2504 80.957 73.8934 80.957C73.5056 80.957 73.1671 81.0524 72.8778 81.2433C72.5915 81.431 72.3699 81.6772 72.213 81.9819C72.0591 82.2835 71.9822 82.6113 71.9822 82.9652V83.7731C71.9822 84.247 72.0653 84.6502 72.2314 84.9826C72.4007 85.315 72.6362 85.5689 72.9378 85.7443C73.2394 85.9167 73.5918 86.0028 73.9949 86.0028C74.2565 86.0028 74.4951 85.9659 74.7105 85.892C74.9259 85.8151 75.1121 85.7012 75.2691 85.5504C75.426 85.3996 75.5461 85.2134 75.6292 84.9918L76.9356 85.2273C76.831 85.612 76.6433 85.949 76.3724 86.2383C76.1047 86.5245 75.7677 86.7476 75.3614 86.9077C74.9582 87.0646 74.4981 87.1431 73.9811 87.1431ZM80.6184 87.157C80.1691 87.157 79.7628 87.0739 79.3997 86.9077C79.0365 86.7384 78.7488 86.4937 78.5364 86.1737C78.3271 85.8536 78.2225 85.4612 78.2225 84.9964C78.2225 84.5964 78.2994 84.267 78.4533 84.0085C78.6072 83.75 78.8149 83.5453 79.0765 83.3945C79.3381 83.2437 79.6305 83.1299 79.9537 83.0529C80.2768 82.976 80.6061 82.9175 80.9416 82.8775C81.3663 82.8282 81.711 82.7882 81.9757 82.7575C82.2404 82.7236 82.4327 82.6697 82.5527 82.5959C82.6728 82.522 82.7328 82.402 82.7328 82.2358V82.2035C82.7328 81.8003 82.6189 81.4879 82.3912 81.2663C82.1665 81.0447 81.831 80.9339 81.3848 80.9339C80.92 80.9339 80.5538 81.037 80.286 81.2433C80.0214 81.4464 79.8382 81.6726 79.7367 81.9219L78.4395 81.6264C78.5933 81.1955 78.818 80.8478 79.1135 80.5831C79.412 80.3153 79.7551 80.1214 80.1429 80.0014C80.5307 79.8783 80.9385 79.8168 81.3663 79.8168C81.6494 79.8168 81.9495 79.8506 82.2665 79.9183C82.5866 79.983 82.8851 80.103 83.1621 80.2784C83.4422 80.4538 83.6715 80.7047 83.85 81.0309C84.0285 81.354 84.1177 81.7741 84.1177 82.2912V87H82.7697V86.0305H82.7143C82.6251 86.209 82.4912 86.3845 82.3127 86.5568C82.1342 86.7292 81.9049 86.8723 81.6248 86.9862C81.3448 87.1 81.0093 87.157 80.6184 87.157ZM80.9185 86.049C81.3001 86.049 81.6264 85.9736 81.8972 85.8228C82.1711 85.672 82.3788 85.475 82.5204 85.2319C82.6651 84.9857 82.7374 84.7225 82.7374 84.4425V83.5284C82.6882 83.5777 82.5927 83.6238 82.4512 83.6669C82.3127 83.7069 82.1542 83.7423 81.9757 83.7731C81.7972 83.8008 81.6233 83.8269 81.454 83.8516C81.2847 83.8731 81.1432 83.8916 81.0293 83.907C80.7615 83.9408 80.5169 83.9978 80.2953 84.0778C80.0768 84.1578 79.9013 84.2732 79.769 84.424C79.6397 84.5717 79.5751 84.7687 79.5751 85.0149C79.5751 85.3565 79.7013 85.6151 79.9537 85.7905C80.206 85.9628 80.5276 86.049 80.9185 86.049ZM88.6107 87.1385C88.0383 87.1385 87.5274 86.9923 87.078 86.6999C86.6318 86.4045 86.2809 85.9844 86.0255 85.4396C85.7731 84.8918 85.6469 84.2347 85.6469 83.4684C85.6469 82.7021 85.7747 82.0465 86.0301 81.5018C86.2886 80.957 86.6425 80.54 87.0919 80.2507C87.5412 79.9614 88.0506 79.8168 88.6199 79.8168C89.06 79.8168 89.414 79.8906 89.6817 80.0384C89.9526 80.183 90.1618 80.3523 90.3096 80.5462C90.4604 80.7401 90.5773 80.9109 90.6604 81.0586H90.7435V77.5455H92.1238V87H90.7758V85.8967H90.6604C90.5773 86.0475 90.4573 86.2198 90.3003 86.4137C90.1465 86.6076 89.9341 86.7769 89.6633 86.9215C89.3924 87.0662 89.0416 87.1385 88.6107 87.1385ZM88.9154 85.9613C89.3124 85.9613 89.6479 85.8567 89.9218 85.6474C90.1988 85.435 90.4081 85.1411 90.5496 84.7656C90.6943 84.3902 90.7666 83.9531 90.7666 83.4545C90.7666 82.9621 90.6958 82.5312 90.5542 82.1619C90.4127 81.7926 90.2049 81.5049 89.931 81.2987C89.6571 81.0924 89.3186 80.9893 88.9154 80.9893C88.4999 80.9893 88.1537 81.0971 87.8767 81.3125C87.5997 81.5279 87.3904 81.8219 87.2488 82.1942C87.1104 82.5666 87.0411 82.9867 87.0411 83.4545C87.0411 83.9285 87.1119 84.3548 87.2535 84.7333C87.395 85.1119 87.6043 85.4119 87.8813 85.6335C88.1614 85.852 88.5061 85.9613 88.9154 85.9613Z" fill="white"/>
</g>
<defs>
<radialGradient id="paint0_radial_30_175" cx="0" cy="0" r="1" gradientUnits="userSpaceOnUse" gradientTransform="translate(307.981 40.641) rotate(44.6554) scale(82.2368 83.1472)">
<stop stop-color="white"/>
<stop offset="1" stop-color="#1E1E1E" stop-opacity="0"/>
<stop offset="1" stop-color="#0E0E35" stop-opacity="0"/>
<stop offset="1" stop-color="white" stop-opacity="0"/>
</radialGradient>
<clipPath id="clip0_30_175">
<rect width="334" height="118" rx="30" fill="white"/>
</clipPath>
</defs>
</svg>
